# xmcd
# 
# Track frame offsets:
#     150
#     27274
#     52300
#     70436
#     101195
#     129794
#     147129
#     175937
#     196289
#     211179
#     227978
#     253526
#     270861
#     286316
#     302049
# 
# Disc length: 4298
# 
# Revision: 1
# Processed by: cddbd v1.5.2PL0 Copyright (c) Steve Scherf et al.
# Submitted via: fre:ac v1.0.31
# 
DISCID=dc10c80f
DTITLE=Billie Holiday - The Complete Masters 1933-1959 Disc 14 (1957-1958)
DYEAR=1958
DGENRE=Jazz
TTITLE0=I Didn't Know What Time It Was
TTITLE1=Just One of Those Things
TTITLE2=Comes Love
TTITLE3=Day In, Day Out
TTITLE4=Darn That Dream
TTITLE5=But Not for Me
TTITLE6=Body and Soul
TTITLE7=Stars Fell on Alabama
TTITLE8=Say It Isn't So
TTITLE9=Love Is Here to Stay
TTITLE10=One for My Baby (and One More for the Road)
TTITLE11=You Don't Know What Love Is
TTITLE12=I'll Be Around
TTITLE13=For Heaven's Sake
TTITLE14=But Beautiful
EXTD=YEAR: 1958
EXTT0=
EXTT1=
EXTT2=
EXTT3=
EXTT4=
EXTT5=
EXTT6=
EXTT7=
EXTT8=
EXTT9=
EXTT10=
EXTT11=
EXTT12=
EXTT13=
EXTT14=
PLAYORDER=
